<svg width="24" height="24" viewBox="0 0 24 24" fill="none" xmlns="http://www.w3.org/2000/svg">
<path fill-rule="evenodd" clip-rule="evenodd" d="M9.44634 9.44659C10.1236 8.76937 11.0421 8.38892 11.9998 8.38892C12.9575 8.38892 13.876 8.76937 14.5532 9.44659C15.2304 10.1238 15.6109 11.0423 15.6109 12C15.6109 12.9578 15.2304 13.8763 14.5532 14.5535C13.876 15.2307 12.9575 15.6111 11.9998 15.6111C11.0421 15.6111 10.1236 15.2307 9.44634 14.5535C8.76913 13.8763 8.38867 12.9578 8.38867 12C8.38867 11.0423 8.76913 10.1238 9.44634 9.44659ZM11.9998 9.38892C11.3073 9.38892 10.6431 9.66401 10.1534 10.1537C9.66377 10.6434 9.38867 11.3075 9.38867 12C9.38867 12.6925 9.66377 13.3567 10.1534 13.8464C10.6431 14.336 11.3073 14.6111 11.9998 14.6111C12.6923 14.6111 13.3564 14.336 13.8461 13.8464C14.3358 13.3567 14.6109 12.6925 14.6109 12C14.6109 11.3075 14.3358 10.6434 13.8461 10.1537C13.3564 9.66401 12.6923 9.38892 11.9998 9.38892Z" fill="white"/>
<path fill-rule="evenodd" clip-rule="evenodd" d="M8.88889 5.5C7.9901 5.5 7.12812 5.85704 6.49258 6.49258C5.85704 7.12812 5.5 7.9901 5.5 8.88889V15.1111C5.5 16.0099 5.85704 16.8719 6.49258 17.5074C7.12812 18.143 7.9901 18.5 8.88889 18.5H15.1111C16.0099 18.5 16.8719 18.143 17.5074 17.5074C18.143 16.8719 18.5 16.0099 18.5 15.1111V8.88889C18.5 7.9901 18.143 7.12812 17.5074 6.49258C16.8719 5.85704 16.0099 5.5 15.1111 5.5H8.88889ZM5.78548 5.78548C6.60855 4.9624 7.72488 4.5 8.88889 4.5H15.1111C16.2751 4.5 17.3914 4.9624 18.2145 5.78548C19.0376 6.60855 19.5 7.72488 19.5 8.88889V15.1111C19.5 16.2751 19.0376 17.3914 18.2145 18.2145C17.3914 19.0376 16.2751 19.5 15.1111 19.5H8.88889C7.72488 19.5 6.60855 19.0376 5.78548 18.2145C4.9624 17.3914 4.5 16.2751 4.5 15.1111V8.88889C4.5 7.72488 4.9624 6.60855 5.78548 5.78548Z" fill="white"/>
<path fill-rule="evenodd" clip-rule="evenodd" d="M16.6215 7.35147C16.8258 7.53722 16.8408 7.85345 16.6551 8.05778L16.6473 8.06633C16.4616 8.27066 16.1453 8.28572 15.941 8.09996C15.7367 7.91421 15.7216 7.59798 15.9074 7.39366L15.9152 7.3851C16.1009 7.18077 16.4171 7.16572 16.6215 7.35147Z" fill="white"/>
</svg>
