<svg width="60" height="18" viewBox="0 0 60 18" fill="none" xmlns="http://www.w3.org/2000/svg">
<path d="M52.5683 15C51.7973 15 51.1158 14.8268 50.5236 14.4804C49.9314 14.1341 49.4677 13.6425 49.1325 13.0056C48.8085 12.3687 48.6465 11.6313 48.6465 10.7933V7.2067C48.6465 6.36871 48.8085 5.63128 49.1325 4.99441C49.4677 4.35754 49.9314 3.86592 50.5236 3.51955C51.1158 3.17318 51.8029 3 52.585 3H54.3616C55.1437 3 55.8308 3.17318 56.423 3.51955C57.0152 3.86592 57.4733 4.35754 57.7973 4.99441C58.1325 5.63128 58.3001 6.36871 58.3001 7.2067V10.7933C58.3001 11.6313 58.1325 12.3687 57.7973 13.0056C57.4733 13.6313 57.0096 14.1229 56.4063 14.4804C55.8141 14.8268 55.1325 15 54.3616 15H52.5683ZM54.328 13.8939C55.1437 13.8939 55.8029 13.6089 56.3057 13.0391C56.8085 12.4693 57.0599 11.7207 57.0599 10.7933V7.2067C57.0599 6.27933 56.8085 5.53073 56.3057 4.96089C55.8029 4.39106 55.1437 4.10614 54.328 4.10614H52.6186C51.8029 4.10614 51.1437 4.39106 50.6409 4.96089C50.1381 5.53073 49.8867 6.27933 49.8867 7.2067V10.7933C49.8867 11.7207 50.1325 12.4693 50.6241 13.0391C51.1269 13.6089 51.7862 13.8939 52.6018 13.8939H54.328Z" fill="white"/>
<path d="M43.0498 4.20641H39.3291V3.13379H48.0107V4.20641H44.29V14.8656H43.0498V4.20641Z" fill="white"/>
<path d="M32.9599 15C32.1889 15 31.5074 14.8268 30.9152 14.4804C30.323 14.1341 29.8593 13.6425 29.5241 13.0056C29.2001 12.3687 29.0381 11.6313 29.0381 10.7933V7.2067C29.0381 6.36871 29.2001 5.63128 29.5241 4.99441C29.8593 4.35754 30.323 3.86592 30.9152 3.51955C31.5074 3.17318 32.1945 3 32.9766 3H34.7532C35.5353 3 36.2224 3.17318 36.8146 3.51955C37.4068 3.86592 37.8649 4.35754 38.1889 4.99441C38.5241 5.63128 38.6917 6.36871 38.6917 7.2067V10.7933C38.6917 11.6313 38.5241 12.3687 38.1889 13.0056C37.8649 13.6313 37.4012 14.1229 36.7979 14.4804C36.2057 14.8268 35.5241 15 34.7532 15H32.9599ZM34.7197 13.8939C35.5353 13.8939 36.1945 13.6089 36.6973 13.0391C37.2001 12.4693 37.4515 11.7207 37.4515 10.7933V7.2067C37.4515 6.27933 37.2001 5.53073 36.6973 4.96089C36.1945 4.39106 35.5353 4.10614 34.7197 4.10614H33.0102C32.1945 4.10614 31.5353 4.39106 31.0325 4.96089C30.5297 5.53073 30.2783 6.27933 30.2783 7.2067V10.7933C30.2783 11.7207 30.5241 12.4693 31.0157 13.0391C31.5185 13.6089 32.1778 13.8939 32.9934 13.8939H34.7197Z" fill="white"/>
<path d="M20.3789 3.13379H28.0884V4.23993H21.6191V8.53044H27.4683V9.63658H21.6191V14.8656H20.3789V3.13379Z" fill="white"/>
<path d="M13.9082 4.20641H10.1875V3.13379H18.8691V4.20641H15.1484V14.8656H13.9082V4.20641Z" fill="white"/>
<path d="M8.24022 14.8656L3.71508 9.25111L2.24022 10.8098V14.8656H1V3.13379H2.24022V9.26787L7.93855 3.13379H9.48045L4.56983 8.34608L9.78212 14.8656H8.24022Z" fill="white"/>
</svg>
