<svg width="223" height="73" viewBox="0 0 223 73" fill="none" xmlns="http://www.w3.org/2000/svg">
<path d="M127.039 37.5C125.176 37.5 123.529 37.067 122.098 36.2011C120.667 35.3352 119.546 34.1061 118.736 32.514C117.953 30.9218 117.562 29.0782 117.562 26.9832V18.0168C117.562 15.9218 117.953 14.0782 118.736 12.486C119.546 10.8939 120.667 9.6648 122.098 8.79888C123.529 7.93296 125.19 7.5 127.08 7.5H131.373C133.263 7.5 134.924 7.93296 136.355 8.79888C137.786 9.6648 138.893 10.8939 139.676 12.486C140.486 14.0782 140.891 15.9218 140.891 18.0168V26.9832C140.891 29.0782 140.486 30.9218 139.676 32.514C138.893 34.0782 137.773 35.3073 136.315 36.2011C134.883 37.067 133.236 37.5 131.373 37.5H127.039ZM131.292 34.7346C133.263 34.7346 134.856 34.0223 136.072 32.5978C137.287 31.1732 137.894 29.3017 137.894 26.9832V18.0168C137.894 15.6983 137.287 13.8268 136.072 12.4022C134.856 10.9777 133.263 10.2654 131.292 10.2654H127.161C125.19 10.2654 123.597 10.9777 122.382 12.4022C121.167 13.8268 120.559 15.6983 120.559 18.0168V26.9832C120.559 29.3017 121.153 31.1732 122.341 32.5978C123.556 34.0223 125.149 34.7346 127.12 34.7346H131.292Z" fill="white"/>
<path d="M104.038 10.516H95.0459V7.83447H116.026V10.516H107.035V37.1641H104.038V10.516Z" fill="white"/>
<path d="M79.6525 37.5C77.7893 37.5 76.1422 37.067 74.7111 36.2011C73.28 35.3352 72.1594 34.1061 71.3494 32.514C70.5663 30.9218 70.1748 29.0782 70.1748 26.9832V18.0168C70.1748 15.9218 70.5663 14.0782 71.3494 12.486C72.1594 10.8939 73.28 9.6648 74.7111 8.79888C76.1422 7.93296 77.8028 7.5 79.693 7.5H83.9863C85.8764 7.5 87.537 7.93296 88.9681 8.79888C90.3992 9.6648 91.5063 10.8939 92.2893 12.486C93.0994 14.0782 93.5044 15.9218 93.5044 18.0168V26.9832C93.5044 29.0782 93.0994 30.9218 92.2893 32.514C91.5063 34.0782 90.3857 35.3073 88.9276 36.2011C87.4965 37.067 85.8494 37.5 83.9863 37.5H79.6525ZM83.9053 34.7346C85.8764 34.7346 87.4695 34.0223 88.6846 32.5978C89.8997 31.1732 90.5072 29.3017 90.5072 26.9832V18.0168C90.5072 15.6983 89.8997 13.8268 88.6846 12.4022C87.4695 10.9777 85.8764 10.2654 83.9053 10.2654H79.774C77.8028 10.2654 76.2097 10.9777 74.9946 12.4022C73.7796 13.8268 73.172 15.6983 73.172 18.0168V26.9832C73.172 29.3017 73.7661 31.1732 74.9541 32.5978C76.1692 34.0223 77.7623 34.7346 79.7335 34.7346H83.9053Z" fill="white"/>
<path d="M49.249 7.83447H67.8803V10.5998H52.2462V21.3261H66.3817V24.0915H52.2462V37.1641H49.249V7.83447Z" fill="white"/>
<path d="M33.6102 10.516H24.6185V7.83447H45.599V10.516H36.6074V37.1641H33.6102V10.516Z" fill="white"/>
<path d="M19.9138 37.1641L8.97808 23.1278L5.41383 27.0244V37.1641H2.41663V7.83447H5.41383V23.1697L19.1848 7.83447H22.911L11.0437 20.8652L23.6401 37.1641H19.9138Z" fill="white"/>
<path d="M7.86364 60.2727C7.79924 59.625 7.51326 59.1098 7.00568 58.7273C6.49811 58.3447 5.85985 58.1534 5.09091 58.1534C4.54924 58.1534 4.07197 58.2462 3.65909 58.4318C3.25 58.6174 2.92803 58.875 2.69318 59.2045C2.46212 59.5303 2.34659 59.9015 2.34659 60.3182C2.34659 60.625 2.41288 60.8939 2.54545 61.125C2.67803 61.3561 2.85606 61.5549 3.07955 61.7216C3.30682 61.8845 3.55682 62.0246 3.82955 62.142C4.10606 62.2595 4.38447 62.358 4.66477 62.4375L5.89205 62.7898C6.26326 62.892 6.63447 63.0227 7.00568 63.1818C7.37689 63.3409 7.71591 63.5417 8.02273 63.7841C8.33333 64.0227 8.58144 64.3163 8.76705 64.6648C8.95644 65.0095 9.05114 65.4242 9.05114 65.9091C9.05114 66.5303 8.89015 67.089 8.56818 67.5852C8.24621 68.0814 7.78409 68.4754 7.18182 68.767C6.57955 69.0549 5.85795 69.1989 5.01705 69.1989C4.22538 69.1989 3.53788 69.0682 2.95455 68.8068C2.37121 68.5417 1.91288 68.1761 1.57955 67.7102C1.24621 67.2443 1.05871 66.7045 1.01705 66.0909H2.10795C2.14583 66.5492 2.29735 66.9375 2.5625 67.2557C2.82765 67.5739 3.17235 67.8163 3.59659 67.983C4.02083 68.1458 4.49432 68.2273 5.01705 68.2273C5.59659 68.2273 6.11174 68.1307 6.5625 67.9375C7.01705 67.7405 7.37311 67.4678 7.63068 67.1193C7.89205 66.767 8.02273 66.358 8.02273 65.892C8.02273 65.4981 7.92046 65.1686 7.71591 64.9034C7.51136 64.6345 7.22538 64.4091 6.85795 64.2273C6.49432 64.0455 6.07197 63.8845 5.59091 63.7443L4.19886 63.3352C3.28598 63.0625 2.57765 62.6856 2.07386 62.2045C1.57008 61.7235 1.31818 61.1098 1.31818 60.3636C1.31818 59.7386 1.48485 59.1894 1.81818 58.7159C2.1553 58.2386 2.60985 57.8674 3.18182 57.6023C3.75758 57.3333 4.40341 57.1989 5.11932 57.1989C5.8428 57.1989 6.48295 57.3314 7.03977 57.5966C7.59659 57.8617 8.03788 58.2273 8.36364 58.6932C8.69318 59.1553 8.86932 59.6818 8.89205 60.2727H7.86364ZM14.7898 69.1818C14.036 69.1818 13.3693 68.9905 12.7898 68.608C12.214 68.2254 11.7633 67.697 11.4375 67.0227C11.1117 66.3447 10.9489 65.5625 10.9489 64.6761C10.9489 63.7822 11.1117 62.9962 11.4375 62.3182C11.7633 61.6364 12.214 61.1061 12.7898 60.7273C13.3693 60.3447 14.036 60.1534 14.7898 60.1534C15.5436 60.1534 16.2083 60.3447 16.7841 60.7273C17.3598 61.1098 17.8106 61.6402 18.1364 62.3182C18.4659 62.9962 18.6307 63.7822 18.6307 64.6761C18.6307 65.5625 18.4678 66.3447 18.142 67.0227C17.8163 67.697 17.3636 68.2254 16.7841 68.608C16.2083 68.9905 15.5436 69.1818 14.7898 69.1818ZM14.7898 68.2557C15.3958 68.2557 15.9091 68.0928 16.3295 67.767C16.75 67.4413 17.0682 67.0076 17.2841 66.4659C17.5038 65.9242 17.6136 65.3277 17.6136 64.6761C17.6136 64.0246 17.5038 63.4261 17.2841 62.8807C17.0682 62.3352 16.75 61.8977 16.3295 61.5682C15.9091 61.2386 15.3958 61.0739 14.7898 61.0739C14.1875 61.0739 13.6742 61.2386 13.25 61.5682C12.8295 61.8977 12.5095 62.3352 12.2898 62.8807C12.0739 63.4261 11.9659 64.0246 11.9659 64.6761C11.9659 65.3277 12.0739 65.9242 12.2898 66.4659C12.5095 67.0076 12.8295 67.4413 13.25 67.767C13.6705 68.0928 14.1837 68.2557 14.7898 68.2557ZM20.8509 69V60.2727H21.8338V61.6136H21.9247C22.099 61.1629 22.3887 60.8087 22.794 60.5511C23.2031 60.2898 23.6937 60.1591 24.2656 60.1591C24.8679 60.1591 25.3622 60.3011 25.7486 60.5852C26.1387 60.8655 26.4304 61.2519 26.6236 61.7443H26.6974C26.8944 61.2595 27.2145 60.875 27.6577 60.5909C28.1046 60.303 28.6463 60.1591 29.2827 60.1591C30.0933 60.1591 30.7334 60.4148 31.2031 60.9261C31.6728 61.4337 31.9077 62.1761 31.9077 63.1534V69H30.8963V63.1534C30.8963 62.464 30.7202 61.947 30.3679 61.6023C30.0156 61.2576 29.5516 61.0852 28.9759 61.0852C28.3092 61.0852 27.7959 61.2898 27.4361 61.6989C27.0762 62.108 26.8963 62.6269 26.8963 63.2557V69H25.8622V63.0625C25.8622 62.4716 25.6974 61.9943 25.3679 61.6307C25.0384 61.267 24.5743 61.0852 23.9759 61.0852C23.5743 61.0852 23.2126 61.1837 22.8906 61.3807C22.5724 61.5777 22.3205 61.8523 22.1349 62.2045C21.9531 62.553 21.8622 62.9545 21.8622 63.4091V69H20.8509ZM38.1136 69.1818C37.2992 69.1818 36.5947 68.9924 36 68.6136C35.4053 68.2311 34.9451 67.7027 34.6193 67.0284C34.2973 66.3504 34.1364 65.5701 34.1364 64.6875C34.1364 63.8087 34.2973 63.0284 34.6193 62.3466C34.9451 61.661 35.3939 61.125 35.9659 60.7386C36.5417 60.3485 37.2064 60.1534 37.9602 60.1534C38.4337 60.1534 38.8902 60.2405 39.3295 60.4148C39.7689 60.5852 40.1629 60.8485 40.5114 61.2045C40.8636 61.5568 41.142 62.0019 41.3466 62.5398C41.5511 63.0739 41.6534 63.7064 41.6534 64.4375V64.9375H34.8352V64.0455H40.6193C40.6193 63.4848 40.5057 62.9811 40.2784 62.5341C40.0549 62.0833 39.7424 61.7273 39.3409 61.4659C38.9432 61.2045 38.483 61.0739 37.9602 61.0739C37.4072 61.0739 36.9205 61.2216 36.5 61.517C36.0795 61.8125 35.75 62.2027 35.5114 62.6875C35.2765 63.1723 35.1572 63.7027 35.1534 64.2784V64.8125C35.1534 65.5057 35.2727 66.1117 35.5114 66.6307C35.7538 67.1458 36.0966 67.5455 36.5398 67.8295C36.983 68.1136 37.5076 68.2557 38.1136 68.2557C38.5265 68.2557 38.8883 68.1913 39.1989 68.0625C39.5133 67.9337 39.7765 67.7614 39.9886 67.5455C40.2045 67.3258 40.3674 67.0852 40.4773 66.8239L41.4375 67.1364C41.3049 67.5038 41.0871 67.8428 40.7841 68.1534C40.4848 68.464 40.1098 68.714 39.6591 68.9034C39.2121 69.089 38.697 69.1818 38.1136 69.1818ZM47.3196 60.2727V61.1534H43.1548V60.2727H47.3196ZM44.456 58.1818H45.473V66.7216C45.473 67.0852 45.5355 67.3712 45.6605 67.5795C45.7855 67.7841 45.9484 67.9299 46.1491 68.017C46.3499 68.1004 46.5639 68.142 46.7912 68.142C46.9238 68.142 47.0374 68.1345 47.1321 68.1193C47.2268 68.1004 47.3101 68.0814 47.3821 68.0625L47.598 68.9773C47.4995 69.0152 47.3783 69.0492 47.2344 69.0795C47.0904 69.1136 46.9124 69.1307 46.7003 69.1307C46.3291 69.1307 45.9711 69.0492 45.6264 68.8864C45.2855 68.7235 45.0052 68.4811 44.7855 68.1591C44.5658 67.8371 44.456 67.4375 44.456 66.9602V58.1818ZM50.8153 63.5455V69H49.804V57.3636H50.8153V61.642H50.9062C51.1108 61.1913 51.4271 60.8314 51.8551 60.5625C52.2869 60.2936 52.8324 60.1591 53.4915 60.1591C54.0824 60.1591 54.6013 60.2803 55.0483 60.5227C55.4953 60.7652 55.8438 61.1231 56.0938 61.5966C56.3438 62.0701 56.4688 62.6534 56.4688 63.3466V69H55.4517V63.4091C55.4517 62.6894 55.2509 62.1231 54.8494 61.7102C54.4517 61.2936 53.9138 61.0852 53.2358 61.0852C52.7699 61.0852 52.3551 61.1837 51.9915 61.3807C51.6278 61.5777 51.34 61.8617 51.1278 62.233C50.9195 62.6004 50.8153 63.0379 50.8153 63.5455ZM59.1435 69V60.2727H60.1605V69H59.1435ZM59.6605 58.7727C59.4522 58.7727 59.2741 58.7027 59.1264 58.5625C58.9787 58.4186 58.9048 58.2462 58.9048 58.0455C58.9048 57.8447 58.9787 57.6742 59.1264 57.5341C59.2741 57.3902 59.4522 57.3182 59.6605 57.3182C59.8688 57.3182 60.0469 57.3902 60.1946 57.5341C60.3423 57.6742 60.4162 57.8447 60.4162 58.0455C60.4162 58.2462 60.3423 58.4186 60.1946 58.5625C60.0469 58.7027 59.8688 58.7727 59.6605 58.7727ZM63.8466 63.5455V69H62.8352V60.2727H63.8182V61.642H63.9091C64.1136 61.1951 64.4318 60.8371 64.8636 60.5682C65.2992 60.2955 65.8371 60.1591 66.4773 60.1591C67.0644 60.1591 67.5795 60.2822 68.0227 60.5284C68.4697 60.7708 68.8163 61.1288 69.0625 61.6023C69.3125 62.0758 69.4375 62.6572 69.4375 63.3466V69H68.4261V63.4091C68.4261 62.6932 68.2254 62.1269 67.8239 61.7102C67.4261 61.2936 66.892 61.0852 66.2216 61.0852C65.7633 61.0852 65.3561 61.1837 65 61.3807C64.6439 61.5777 64.3617 61.8617 64.1534 62.233C63.9489 62.6004 63.8466 63.0379 63.8466 63.5455ZM75.4304 72.4545C74.8357 72.4545 74.3149 72.3769 73.8679 72.2216C73.4209 72.0701 73.044 71.8617 72.7372 71.5966C72.4304 71.3314 72.1918 71.0341 72.0213 70.7045L72.8509 70.1591C72.9759 70.3788 73.1425 70.5947 73.3509 70.8068C73.563 71.0189 73.8376 71.1951 74.1747 71.3352C74.5156 71.4754 74.9342 71.5455 75.4304 71.5455C76.2031 71.5455 76.8262 71.3523 77.2997 70.9659C77.777 70.5795 78.0156 69.9792 78.0156 69.1648V67.1989H77.9247C77.8073 67.464 77.6387 67.7292 77.419 67.9943C77.1993 68.2557 76.9115 68.4735 76.5554 68.6477C76.2031 68.822 75.7656 68.9091 75.2429 68.9091C74.5459 68.9091 73.9266 68.7367 73.3849 68.392C72.8471 68.0473 72.4228 67.5549 72.1122 66.9148C71.8054 66.2708 71.652 65.5038 71.652 64.6136C71.652 63.7311 71.8016 62.9545 72.1009 62.2841C72.4039 61.6136 72.8262 61.0909 73.3679 60.7159C73.9096 60.3409 74.5402 60.1534 75.2599 60.1534C75.794 60.1534 76.2372 60.2481 76.5895 60.4375C76.9418 60.6231 77.224 60.8542 77.4361 61.1307C77.652 61.4072 77.8205 61.6761 77.9418 61.9375H78.044V60.2727H79.0327V69.2273C79.0327 69.9659 78.8755 70.5739 78.5611 71.0511C78.2467 71.5284 77.8187 71.8807 77.277 72.108C76.7353 72.339 76.1198 72.4545 75.4304 72.4545ZM75.3622 67.983C75.9228 67.983 76.402 67.8485 76.7997 67.5795C77.1974 67.3068 77.5024 66.9167 77.7145 66.4091C77.9266 65.9015 78.0327 65.2973 78.0327 64.5966C78.0327 63.9148 77.9285 63.3106 77.7202 62.7841C77.5118 62.2538 77.2088 61.8371 76.8111 61.5341C76.4171 61.2273 75.9342 61.0739 75.3622 61.0739C74.7789 61.0739 74.2865 61.2311 73.8849 61.5455C73.4834 61.8598 73.1804 62.2841 72.9759 62.8182C72.7713 63.3485 72.669 63.9413 72.669 64.5966C72.669 65.2633 72.7732 65.8523 72.9815 66.3636C73.1899 66.8712 73.4948 67.2689 73.8963 67.5568C74.2978 67.8409 74.7865 67.983 75.3622 67.983ZM87.2216 57.3636V69H86.2102V57.3636H87.2216ZM89.9091 69V60.2727H90.9261V69H89.9091ZM90.4261 58.7727C90.2178 58.7727 90.0398 58.7027 89.892 58.5625C89.7443 58.4186 89.6705 58.2462 89.6705 58.0455C89.6705 57.8447 89.7443 57.6742 89.892 57.5341C90.0398 57.3902 90.2178 57.3182 90.4261 57.3182C90.6345 57.3182 90.8125 57.3902 90.9602 57.5341C91.108 57.6742 91.1818 57.8447 91.1818 58.0455C91.1818 58.2462 91.108 58.4186 90.9602 58.5625C90.8125 58.7027 90.6345 58.7727 90.4261 58.7727ZM94.5213 65.7045L94.5099 64.3807H94.7372L98.8281 60.2727H100.107L96.0668 64.3182L95.9759 64.3352L94.5213 65.7045ZM93.6009 69V57.3636H94.6122V69H93.6009ZM99.0384 69L95.4929 64.517L96.2202 63.8182L100.334 69H99.0384ZM105.176 69.1818C104.362 69.1818 103.657 68.9924 103.062 68.6136C102.468 68.2311 102.008 67.7027 101.682 67.0284C101.36 66.3504 101.199 65.5701 101.199 64.6875C101.199 63.8087 101.36 63.0284 101.682 62.3466C102.008 61.661 102.456 61.125 103.028 60.7386C103.604 60.3485 104.269 60.1534 105.023 60.1534C105.496 60.1534 105.953 60.2405 106.392 60.4148C106.831 60.5852 107.225 60.8485 107.574 61.2045C107.926 61.5568 108.205 62.0019 108.409 62.5398C108.614 63.0739 108.716 63.7064 108.716 64.4375V64.9375H101.898V64.0455H107.682C107.682 63.4848 107.568 62.9811 107.341 62.5341C107.117 62.0833 106.805 61.7273 106.403 61.4659C106.006 61.2045 105.545 61.0739 105.023 61.0739C104.47 61.0739 103.983 61.2216 103.562 61.517C103.142 61.8125 102.813 62.2027 102.574 62.6875C102.339 63.1723 102.22 63.7027 102.216 64.2784V64.8125C102.216 65.5057 102.335 66.1117 102.574 66.6307C102.816 67.1458 103.159 67.5455 103.602 67.8295C104.045 68.1136 104.57 68.2557 105.176 68.2557C105.589 68.2557 105.951 68.1913 106.261 68.0625C106.576 67.9337 106.839 67.7614 107.051 67.5455C107.267 67.3258 107.43 67.0852 107.54 66.8239L108.5 67.1364C108.367 67.5038 108.15 67.8428 107.847 68.1534C107.547 68.464 107.172 68.714 106.722 68.9034C106.275 69.089 105.759 69.1818 105.176 69.1818ZM117.882 69.1989C117.356 69.1989 116.875 69.0966 116.439 68.892C116.003 68.6837 115.657 68.3845 115.399 67.9943C115.142 67.6004 115.013 67.1231 115.013 66.5625C115.013 66.1307 115.094 65.767 115.257 65.4716C115.42 65.1761 115.651 64.9337 115.95 64.7443C116.25 64.5549 116.604 64.4053 117.013 64.2955C117.422 64.1856 117.873 64.1004 118.365 64.0398C118.854 63.9792 119.267 63.9261 119.604 63.8807C119.945 63.8352 120.204 63.7633 120.382 63.6648C120.56 63.5663 120.649 63.4072 120.649 63.1875V62.983C120.649 62.3883 120.471 61.9205 120.115 61.5795C119.763 61.2348 119.255 61.0625 118.592 61.0625C117.964 61.0625 117.45 61.2008 117.053 61.4773C116.659 61.7538 116.382 62.0795 116.223 62.4545L115.263 62.108C115.46 61.6307 115.732 61.25 116.081 60.9659C116.429 60.678 116.82 60.4716 117.251 60.3466C117.683 60.2178 118.121 60.1534 118.564 60.1534C118.897 60.1534 119.244 60.197 119.604 60.2841C119.967 60.3712 120.304 60.5227 120.615 60.7386C120.926 60.9508 121.178 61.2481 121.371 61.6307C121.564 62.0095 121.661 62.4905 121.661 63.0739V69H120.649V67.6193H120.587C120.465 67.8769 120.286 68.1269 120.047 68.3693C119.808 68.6117 119.509 68.8106 119.149 68.9659C118.789 69.1212 118.367 69.1989 117.882 69.1989ZM118.018 68.2727C118.556 68.2727 119.022 68.1534 119.416 67.9148C119.81 67.6761 120.113 67.3598 120.325 66.9659C120.541 66.5682 120.649 66.1307 120.649 65.6534V64.392C120.573 64.464 120.446 64.5284 120.268 64.5852C120.094 64.642 119.892 64.6932 119.661 64.7386C119.433 64.7803 119.206 64.8163 118.979 64.8466C118.751 64.8769 118.547 64.9034 118.365 64.9261C117.873 64.9867 117.452 65.0814 117.104 65.2102C116.755 65.339 116.488 65.517 116.303 65.7443C116.117 65.9678 116.024 66.2557 116.024 66.608C116.024 67.1383 116.214 67.5492 116.592 67.8409C116.971 68.1288 117.446 68.2727 118.018 68.2727ZM128.851 72.2727V60.2727H129.834V61.9375H129.953C130.074 61.6761 130.241 61.4091 130.453 61.1364C130.665 60.8598 130.946 60.6269 131.294 60.4375C131.646 60.2481 132.089 60.1534 132.624 60.1534C133.343 60.1534 133.972 60.3428 134.51 60.7216C135.052 61.0966 135.472 61.6231 135.771 62.3011C136.074 62.9754 136.226 63.7614 136.226 64.6591C136.226 65.5606 136.074 66.3504 135.771 67.0284C135.472 67.7064 135.052 68.2348 134.51 68.6136C133.972 68.9924 133.347 69.1818 132.635 69.1818C132.108 69.1818 131.667 69.0871 131.311 68.8977C130.959 68.7083 130.673 68.4754 130.453 68.1989C130.237 67.9186 130.071 67.6458 129.953 67.3807H129.862V72.2727H128.851ZM129.851 64.642C129.851 65.3466 129.955 65.9716 130.163 66.517C130.375 67.0587 130.679 67.4848 131.072 67.7955C131.47 68.1023 131.951 68.2557 132.516 68.2557C133.095 68.2557 133.584 68.0966 133.982 67.7784C134.383 67.4564 134.688 67.0227 134.896 66.4773C135.108 65.9318 135.214 65.3201 135.214 64.642C135.214 63.9716 135.11 63.3674 134.902 62.8295C134.697 62.2917 134.394 61.8655 133.993 61.5511C133.591 61.233 133.099 61.0739 132.516 61.0739C131.947 61.0739 131.464 61.2273 131.067 61.5341C130.669 61.8371 130.366 62.2576 130.158 62.7955C129.953 63.3295 129.851 63.9451 129.851 64.642ZM139.456 63.5455V69H138.445V57.3636H139.456V61.642H139.547C139.751 61.1913 140.068 60.8314 140.496 60.5625C140.928 60.2936 141.473 60.1591 142.132 60.1591C142.723 60.1591 143.242 60.2803 143.689 60.5227C144.136 60.7652 144.484 61.1231 144.734 61.5966C144.984 62.0701 145.109 62.6534 145.109 63.3466V69H144.092V63.4091C144.092 62.6894 143.892 62.1231 143.49 61.7102C143.092 61.2936 142.554 61.0852 141.876 61.0852C141.411 61.0852 140.996 61.1837 140.632 61.3807C140.268 61.5777 139.981 61.8617 139.768 62.233C139.56 62.6004 139.456 63.0379 139.456 63.5455ZM151.165 69.1818C150.411 69.1818 149.744 68.9905 149.165 68.608C148.589 68.2254 148.138 67.697 147.812 67.0227C147.487 66.3447 147.324 65.5625 147.324 64.6761C147.324 63.7822 147.487 62.9962 147.812 62.3182C148.138 61.6364 148.589 61.1061 149.165 60.7273C149.744 60.3447 150.411 60.1534 151.165 60.1534C151.919 60.1534 152.583 60.3447 153.159 60.7273C153.735 61.1098 154.186 61.6402 154.511 62.3182C154.841 62.9962 155.006 63.7822 155.006 64.6761C155.006 65.5625 154.843 66.3447 154.517 67.0227C154.191 67.697 153.739 68.2254 153.159 68.608C152.583 68.9905 151.919 69.1818 151.165 69.1818ZM151.165 68.2557C151.771 68.2557 152.284 68.0928 152.705 67.767C153.125 67.4413 153.443 67.0076 153.659 66.4659C153.879 65.9242 153.989 65.3277 153.989 64.6761C153.989 64.0246 153.879 63.4261 153.659 62.8807C153.443 62.3352 153.125 61.8977 152.705 61.5682C152.284 61.2386 151.771 61.0739 151.165 61.0739C150.563 61.0739 150.049 61.2386 149.625 61.5682C149.205 61.8977 148.884 62.3352 148.665 62.8807C148.449 63.4261 148.341 64.0246 148.341 64.6761C148.341 65.3277 148.449 65.9242 148.665 66.4659C148.884 67.0076 149.205 67.4413 149.625 67.767C150.045 68.0928 150.559 68.2557 151.165 68.2557ZM160.663 60.2727V61.1534H156.499V60.2727H160.663ZM157.8 58.1818H158.817V66.7216C158.817 67.0852 158.879 67.3712 159.004 67.5795C159.129 67.7841 159.292 67.9299 159.493 68.017C159.694 68.1004 159.908 68.142 160.135 68.142C160.268 68.142 160.381 68.1345 160.476 68.1193C160.571 68.1004 160.654 68.0814 160.726 68.0625L160.942 68.9773C160.843 69.0152 160.722 69.0492 160.578 69.0795C160.434 69.1136 160.256 69.1307 160.044 69.1307C159.673 69.1307 159.315 69.0492 158.97 68.8864C158.629 68.7235 158.349 68.4811 158.129 68.1591C157.91 67.8371 157.8 67.4375 157.8 66.9602V58.1818ZM166.259 69.1818C165.505 69.1818 164.838 68.9905 164.259 68.608C163.683 68.2254 163.232 67.697 162.906 67.0227C162.58 66.3447 162.418 65.5625 162.418 64.6761C162.418 63.7822 162.58 62.9962 162.906 62.3182C163.232 61.6364 163.683 61.1061 164.259 60.7273C164.838 60.3447 165.505 60.1534 166.259 60.1534C167.012 60.1534 167.677 60.3447 168.253 60.7273C168.829 61.1098 169.279 61.6402 169.605 62.3182C169.935 62.9962 170.099 63.7822 170.099 64.6761C170.099 65.5625 169.937 66.3447 169.611 67.0227C169.285 67.697 168.832 68.2254 168.253 68.608C167.677 68.9905 167.012 69.1818 166.259 69.1818ZM166.259 68.2557C166.865 68.2557 167.378 68.0928 167.798 67.767C168.219 67.4413 168.537 67.0076 168.753 66.4659C168.973 65.9242 169.082 65.3277 169.082 64.6761C169.082 64.0246 168.973 63.4261 168.753 62.8807C168.537 62.3352 168.219 61.8977 167.798 61.5682C167.378 61.2386 166.865 61.0739 166.259 61.0739C165.656 61.0739 165.143 61.2386 164.719 61.5682C164.298 61.8977 163.978 62.3352 163.759 62.8807C163.543 63.4261 163.435 64.0246 163.435 64.6761C163.435 65.3277 163.543 65.9242 163.759 66.4659C163.978 67.0076 164.298 67.4413 164.719 67.767C165.139 68.0928 165.652 68.2557 166.259 68.2557ZM175.649 72.4545C175.054 72.4545 174.534 72.3769 174.087 72.2216C173.64 72.0701 173.263 71.8617 172.956 71.5966C172.649 71.3314 172.411 71.0341 172.24 70.7045L173.07 70.1591C173.195 70.3788 173.361 70.5947 173.57 70.8068C173.782 71.0189 174.056 71.1951 174.393 71.3352C174.734 71.4754 175.153 71.5455 175.649 71.5455C176.422 71.5455 177.045 71.3523 177.518 70.9659C177.996 70.5795 178.234 69.9792 178.234 69.1648V67.1989H178.143C178.026 67.464 177.857 67.7292 177.638 67.9943C177.418 68.2557 177.13 68.4735 176.774 68.6477C176.422 68.822 175.984 68.9091 175.462 68.9091C174.765 68.9091 174.145 68.7367 173.604 68.392C173.066 68.0473 172.642 67.5549 172.331 66.9148C172.024 66.2708 171.871 65.5038 171.871 64.6136C171.871 63.7311 172.02 62.9545 172.32 62.2841C172.623 61.6136 173.045 61.0909 173.587 60.7159C174.128 60.3409 174.759 60.1534 175.479 60.1534C176.013 60.1534 176.456 60.2481 176.808 60.4375C177.161 60.6231 177.443 60.8542 177.655 61.1307C177.871 61.4072 178.039 61.6761 178.161 61.9375H178.263V60.2727H179.251V69.2273C179.251 69.9659 179.094 70.5739 178.78 71.0511C178.465 71.5284 178.037 71.8807 177.496 72.108C176.954 72.339 176.339 72.4545 175.649 72.4545ZM175.581 67.983C176.142 67.983 176.621 67.8485 177.018 67.5795C177.416 67.3068 177.721 66.9167 177.933 66.4091C178.145 65.9015 178.251 65.2973 178.251 64.5966C178.251 63.9148 178.147 63.3106 177.939 62.7841C177.731 62.2538 177.428 61.8371 177.03 61.5341C176.636 61.2273 176.153 61.0739 175.581 61.0739C174.998 61.0739 174.505 61.2311 174.104 61.5455C173.702 61.8598 173.399 62.2841 173.195 62.8182C172.99 63.3485 172.888 63.9413 172.888 64.5966C172.888 65.2633 172.992 65.8523 173.2 66.3636C173.409 66.8712 173.714 67.2689 174.115 67.5568C174.517 67.8409 175.005 67.983 175.581 67.983ZM181.929 69V60.2727H182.912V61.6136H182.986C183.16 61.1742 183.463 60.8201 183.895 60.5511C184.33 60.2784 184.823 60.142 185.372 60.142C185.455 60.142 185.548 60.1439 185.651 60.1477C185.753 60.1515 185.838 60.1553 185.906 60.1591V61.1875C185.861 61.1799 185.781 61.1686 185.668 61.1534C185.554 61.1383 185.431 61.1307 185.298 61.1307C184.844 61.1307 184.438 61.2273 184.082 61.4205C183.73 61.6098 183.452 61.8731 183.247 62.2102C183.043 62.5473 182.94 62.9318 182.94 63.3636V69H181.929ZM190.07 69.1989C189.543 69.1989 189.062 69.0966 188.626 68.892C188.191 68.6837 187.844 68.3845 187.587 67.9943C187.329 67.6004 187.2 67.1231 187.2 66.5625C187.2 66.1307 187.282 65.767 187.445 65.4716C187.607 65.1761 187.839 64.9337 188.138 64.7443C188.437 64.5549 188.791 64.4053 189.2 64.2955C189.609 64.1856 190.06 64.1004 190.553 64.0398C191.041 63.9792 191.454 63.9261 191.791 63.8807C192.132 63.8352 192.392 63.7633 192.57 63.6648C192.748 63.5663 192.837 63.4072 192.837 63.1875V62.983C192.837 62.3883 192.659 61.9205 192.303 61.5795C191.95 61.2348 191.443 61.0625 190.78 61.0625C190.151 61.0625 189.638 61.2008 189.24 61.4773C188.846 61.7538 188.57 62.0795 188.411 62.4545L187.45 62.108C187.647 61.6307 187.92 61.25 188.268 60.9659C188.617 60.678 189.007 60.4716 189.439 60.3466C189.871 60.2178 190.308 60.1534 190.751 60.1534C191.085 60.1534 191.431 60.197 191.791 60.2841C192.155 60.3712 192.492 60.5227 192.803 60.7386C193.113 60.9508 193.365 61.2481 193.558 61.6307C193.751 62.0095 193.848 62.4905 193.848 63.0739V69H192.837V67.6193H192.774C192.653 67.8769 192.473 68.1269 192.234 68.3693C191.996 68.6117 191.696 68.8106 191.337 68.9659C190.977 69.1212 190.554 69.1989 190.07 69.1989ZM190.206 68.2727C190.744 68.2727 191.21 68.1534 191.604 67.9148C191.998 67.6761 192.301 67.3598 192.513 66.9659C192.729 66.5682 192.837 66.1307 192.837 65.6534V64.392C192.761 64.464 192.634 64.5284 192.456 64.5852C192.282 64.642 192.079 64.6932 191.848 64.7386C191.621 64.7803 191.393 64.8163 191.166 64.8466C190.939 64.8769 190.734 64.9034 190.553 64.9261C190.06 64.9867 189.64 65.0814 189.291 65.2102C188.943 65.339 188.676 65.517 188.49 65.7443C188.304 65.9678 188.212 66.2557 188.212 66.608C188.212 67.1383 188.401 67.5492 188.78 67.8409C189.159 68.1288 189.634 68.2727 190.206 68.2727ZM196.538 72.2727V60.2727H197.521V61.9375H197.641C197.762 61.6761 197.929 61.4091 198.141 61.1364C198.353 60.8598 198.633 60.6269 198.982 60.4375C199.334 60.2481 199.777 60.1534 200.311 60.1534C201.031 60.1534 201.66 60.3428 202.197 60.7216C202.739 61.0966 203.16 61.6231 203.459 62.3011C203.762 62.9754 203.913 63.7614 203.913 64.6591C203.913 65.5606 203.762 66.3504 203.459 67.0284C203.16 67.7064 202.739 68.2348 202.197 68.6136C201.66 68.9924 201.035 69.1818 200.322 69.1818C199.796 69.1818 199.355 69.0871 198.999 68.8977C198.646 68.7083 198.36 68.4754 198.141 68.1989C197.925 67.9186 197.758 67.6458 197.641 67.3807H197.55V72.2727H196.538ZM197.538 64.642C197.538 65.3466 197.643 65.9716 197.851 66.517C198.063 67.0587 198.366 67.4848 198.76 67.7955C199.158 68.1023 199.639 68.2557 200.203 68.2557C200.783 68.2557 201.271 68.0966 201.669 67.7784C202.071 67.4564 202.375 67.0227 202.584 66.4773C202.796 65.9318 202.902 65.3201 202.902 64.642C202.902 63.9716 202.798 63.3674 202.589 62.8295C202.385 62.2917 202.082 61.8655 201.68 61.5511C201.279 61.233 200.786 61.0739 200.203 61.0739C199.635 61.0739 199.152 61.2273 198.754 61.5341C198.357 61.8371 198.054 62.2576 197.845 62.7955C197.641 63.3295 197.538 63.9451 197.538 64.642ZM207.143 63.5455V69H206.132V57.3636H207.143V61.642H207.234C207.439 61.1913 207.755 60.8314 208.183 60.5625C208.615 60.2936 209.161 60.1591 209.82 60.1591C210.411 60.1591 210.929 60.2803 211.376 60.5227C211.823 60.7652 212.172 61.1231 212.422 61.5966C212.672 62.0701 212.797 62.6534 212.797 63.3466V69H211.78V63.4091C211.78 62.6894 211.579 62.1231 211.178 61.7102C210.78 61.2936 210.242 61.0852 209.564 61.0852C209.098 61.0852 208.683 61.1837 208.32 61.3807C207.956 61.5777 207.668 61.8617 207.456 62.233C207.248 62.6004 207.143 63.0379 207.143 63.5455ZM215.852 72.2727C215.652 72.2727 215.464 72.2538 215.29 72.2159C215.116 72.178 214.977 72.1364 214.875 72.0909L215.148 71.1989C215.492 71.3049 215.799 71.3428 216.068 71.3125C216.337 71.286 216.576 71.1648 216.784 70.9489C216.992 70.7367 217.178 70.411 217.341 69.9716L217.659 69.0852L214.449 60.2727H215.545L218.136 67.6648H218.216L220.807 60.2727H221.903L218.21 70.3807C218.055 70.8011 217.864 71.1515 217.636 71.4318C217.409 71.7159 217.146 71.9261 216.847 72.0625C216.551 72.2027 216.22 72.2727 215.852 72.2727Z" fill="#676767"/>
</svg>
